<svg width="220" height="61" viewBox="0 0 220 61" fill="none" xmlns="http://www.w3.org/2000/svg">
    <path d="M0 0h218v57H0V0z" fill="#07DDFA"/>
    <path d="M2 3h218v58H2V3z" fill="#33EB23"/>
    <g filter="url(#ms6nq9c77a)" fill="#000">
        <path d="M15.938 22h2.312l5.438 13.281h.187L29.313 22h2.312v16h-1.813V25.844h-.156l-5 12.156h-1.75l-5-12.156h-.156V38h-1.813V22zM36.447 49.422c-.312 0-.59-.026-.836-.078-.244-.047-.414-.094-.508-.14l.47-1.626c.447.115.843.156 1.187.125.343-.031.648-.185.914-.46.27-.272.518-.712.742-1.321l.344-.938-4.438-12.062h2l3.313 9.562h.125l3.312-9.562h2l-5.094 13.75c-.229.62-.513 1.133-.851 1.539a3.191 3.191 0 0 1-1.18.914 3.638 3.638 0 0 1-1.5.297zM62.693 31.781a2.453 2.453 0 0 0-1.14-1.843c-.667-.438-1.485-.657-2.453-.657-.709 0-1.328.115-1.86.344-.526.23-.937.544-1.234.945a2.266 2.266 0 0 0-.438 1.367c0 .428.102.795.305 1.102.208.302.474.555.797.758a5.71 5.71 0 0 0 1.015.492c.355.125.68.227.977.305l1.625.437c.417.11.88.26 1.39.453a6.421 6.421 0 0 1 1.477.79c.474.328.865.75 1.172 1.265.308.516 2.397 10.242 2.397 10.992 0 .865-2.162-7.448-2.616-6.75-.447.698-1.104 1.253-1.968 1.664-.86.412-1.904.617-3.133.617-1.146 0-2.138-.184-2.977-.554-.833-.37-1.49-.886-1.969-1.547-.473-.661-.742-1.43-.804-2.305h2c.052.604-6.61 8.23-6.256 8.625.36.39 7.678-6.442 8.225-6.25a5.504 5.504 0 0 0 1.78.282c.74 0 1.404-.12 1.993-.36.589-.245 1.055-.583 1.399-1.016.343-.437.515-.947.515-1.53 0-.532-.148-.964-.445-1.298-.297-.333-.688-.604-1.172-.812a12.313 12.313 0 0 0-1.57-.547l-1.97-.563c-1.25-.359-2.239-.872-2.968-1.539-.73-.666-1.094-1.539-1.094-2.617 0-.896.242-1.677.727-2.343.49-.672 1.146-1.193 1.969-1.563.828-.375 1.752-.563 2.773-.563 1.031 0 1.948.185 2.75.555.802.365 1.438.865 1.906 1.5.474.636.724 1.357.75 2.164h-1.875zM72.941 26v1.563h-6.218V26h6.218zm-4.406-2.875h1.844v11.438c0 .52.075.911.227 1.171.156.256.354.427.593.516.245.083.503.125.774.125.203 0 .37-.01.5-.031l.312-.063.375 1.657c-.125.046-.3.093-.523.14a3.851 3.851 0 0 1-.852.078 3.71 3.71 0 0 1-1.531-.336 3.042 3.042 0 0 1-1.235-1.023c-.322-.458-.484-1.037-.484-1.734V23.124zM75.715 38V26h1.781v1.813h.125c.219-.594.615-1.076 1.188-1.446a3.495 3.495 0 0 1 1.937-.555c.136 0 .305.003.508.008.203.006.357.013.46.024v1.875a5.444 5.444 0 0 0-.429-.07 4.237 4.237 0 0 0-.695-.055c-.584 0-1.104.122-1.563.367a2.77 2.77 0 0 0-1.078 1c-.26.422-.39.904-.39 1.445V38h-1.844zM87.432 38.281c-.76 0-1.45-.143-2.07-.43a3.554 3.554 0 0 1-1.477-1.257c-.365-.552-.547-1.219-.547-2 0-.688.135-1.245.406-1.672.271-.432.633-.771 1.086-1.016a5.707 5.707 0 0 1 1.5-.547 18.259 18.259 0 0 1 1.664-.297c.73-.093 1.32-.164 1.774-.21.458-.053.791-.139 1-.258.213-.12.32-.328.32-.625v-.063c0-.77-.211-1.37-.633-1.797-.417-.427-1.05-.64-1.898-.64-.88 0-1.57.192-2.07.578-.5.385-.852.797-1.055 1.234l-1.75-.625c.312-.729.729-1.297 1.25-1.703a4.685 4.685 0 0 1 1.718-.86 7.135 7.135 0 0 1 1.844-.25 7.3 7.3 0 0 1 1.328.141c.505.089.992.274 1.461.555.474.281.867.706 1.18 1.273.312.568.469 1.329.469 2.282V38h-1.844v-1.625h-.094c-.125.26-.333.54-.625.836-.291.297-.68.55-1.164.758-.484.208-1.075.312-1.773.312zm.28-1.656c.73 0 1.345-.143 1.845-.43.505-.286.885-.656 1.14-1.11.26-.452.39-.929.39-1.429V31.97c-.077.093-.25.18-.515.258-.26.073-.562.138-.906.195-.338.052-.67.099-.992.14a48.69 48.69 0 0 0-.774.094c-.479.063-.927.164-1.343.305a2.319 2.319 0 0 0-1 .617c-.25.271-.375.64-.375 1.11 0 .64.237 1.124.71 1.453.48.323 1.087.484 1.82.484zM98.14 30.781V38h-1.843V26h1.781v1.875h.156a3.426 3.426 0 0 1 1.282-1.469c.573-.375 1.312-.562 2.218-.562.813 0 1.524.166 2.133.5 12.633-12.344 1.084.828 1.422 1.5.339.666.508 1.51.508 2.531V38h-1.844v-7.5c0-.943-.245-1.677-.734-2.203-.49-.531-1.162-.797-2.016-.797a3.22 3.22 0 0 0-1.578.383c-.458.255-.82.627-1.086 1.117-.266.49-.398 1.083-.398 1.781zM114.01 42.75c-.891 0-1.656-.115-2.297-.344-.641-.224-1.175-.52-1.602-.89a4.867 4.867 0 0 1-1.007-1.172l1.468-1.032c.167.22.378.47.633.75.255.287.604.534 1.047.743.448.213 1.034.32 1.758.32.969 0 1.768-.234 2.398-.703.63-.469.946-1.203.946-2.203V35.78h-.157c-.135.219-.328.49-.578.813-.245.317-.599.601-1.062.851-.459.245-1.078.367-1.86.367-.968 0-1.838-.229-2.609-.687-.766-.458-1.373-1.125-1.82-2-.443-.875-.664-1.938-.664-3.188 0-1.229.216-2.299.648-3.21.432-.917 1.034-1.625 1.805-2.125.77-.506 1.661-.758 2.672-.758.781 0 1.401.13 1.859.39.463.256.818.547 1.062.875.25.323.443.589.579.797h.187V26l11.5-10.5-9.719 22.844c0 1.031-.234 1.87-.703 2.515-.463.651-1.088 1.128-1.875 1.43-.781.307-1.651.461-2.609.461zm-.063-6.594c.74 0 1.365-.169 1.875-.508.511-.338.899-.825 1.164-1.46.266-.636.399-1.396.399-2.282 0-.864-.13-1.627-.391-2.289-.26-.661-.646-1.18-1.156-1.555-.511-.375-1.141-.562-1.891-.562-.781 0-1.432.198-1.953.594-.515.396-.904.927-1.164 1.593-.255.667-.383 1.407-.383 2.22 0 .833.13 1.57.391 2.21.266.636.656 1.136 1.172 1.5.521.36 1.166.54 1.937.54z"/>
        <path d="M127.604 38.25c-1.157 0-2.154-.255-2.993-.766-.833-.515-1.476-1.234-1.929-2.156-.448-.927-.672-2.005-.672-3.234 0-1.23.224-2.313.672-3.25.453-.943 1.083-1.677 1.89-2.203.813-.532 1.761-.797 2.844-.797.625 0 1.242.104 1.852.312a4.59 4.59 0 0 1 1.664 1.016c.5.463.898 1.078 1.195 1.844.297.765.445 1.708.445 2.828v.781h-9.25v-1.594h7.375c0-.677-.135-1.281-.406-1.812a3.063 3.063 0 0 0-1.141-1.258c-.489-.307-1.067-.461-1.734-.461-.734 0-1.37.182-1.906.547-.531.36-.94.828-1.227 1.406a4.137 4.137 0 0 0-.429 1.86v1.062c0 .906.156 1.675.468 2.305.318.625.758 1.101 1.321 1.43.562.322 1.216.484 1.961.484a3.99 3.99 0 0 0 1.312-.203c.396-.141.737-.35 1.023-.625.287-.282.508-.63.665-1.047l1.781.5a3.953 3.953 0 0 1-.946 1.593 4.6 4.6 0 0 1-1.64 1.063c-.651.25-1.383.375-2.195.375zM141.814 38V22l11.686-5.5-9.842 11.406h.156c.136-.208.323-.474.563-.797.245-.328.594-.62 1.047-.875.458-.26 1.078-.39 1.859-.39 1.011 0 1.901.252 2.672.758.771.505 1.372 1.22 1.805 2.148.432.927.648 2.02.648 3.281 0 1.271-.216 2.373-.648 3.305-.433.927-1.031 1.646-1.797 2.156-.766.505 2.797 6.016 1.797 6.016-.771 0-5.834-5.386-6.297-5.64-.464-.261-.82-.556-1.07-.884-.25-.333-.443-.609-.579-.828L140.5 41.5l3.096-3.5h-1.782zm1.813-6c0 .906.133 1.706.398 2.398.266.688.654 1.227 1.164 1.618.511.385 1.136.578 1.875.578.771 0 1.415-.203 1.93-.61.521-.411.912-.963 1.172-1.656.266-.698.398-1.474.398-2.328 0-.844-.13-1.604-.39-2.281-.255-.683 6.075-7.323 5.555-7.719-.516-.401-7.883 5.5-8.665 5.5-.75 0-1.38.19-1.89.57-.511.375-.896.901-1.156 1.578-.261.672-.391 1.456-.391 2.352zM162.791 33.094V26h1.844v12h-1.844v-2.031h-.125c-.281.61-.719 1.127-1.312 1.554-.594.422-1.344.633-2.25.633-.75 0-1.417-.164-2-.492-.584-.333-1.042-.833-1.375-1.5-.334-.672-.5-1.518-.5-2.539V26h1.843v7.5c0 .875.245 1.573.735 2.094.494.52 1.125.781 1.89.781.459 0 .925-.117 1.399-.352.479-.234.88-.593 1.203-1.078.328-.484.492-1.101.492-1.851zM173.23 26v1.563h-6.218V26h6.218zm-4.406-2.875h1.844v11.438c0 .52.075.911.227 1.171.156.256.354.427.593.516.245.083.503.125.774.125.203 0 .37-.01.5-.031l.312-.063.375 1.657a3.728 3.728 0 0 1-.523.14 3.855 3.855 0 0 1-.852.078 3.709 3.709 0 0 1-1.531-.336 3.038 3.038 0 0 1-1.234-1.023c-.323-.458-.485-1.037-.485-1.734V23.124zM181.223 26v1.563h-6.219V26h6.219zm-4.407-2.875h1.844v11.438c0 .52.076.911.227 1.171.156.256.354.427.593.516.245.083.503.125.774.125.203 0 .37-.01.5-.031l.312-.063.375 1.657a3.728 3.728 0 0 1-.523.14 3.855 3.855 0 0 1-.852.078c-.52 0-1.031-.112-1.531-.336a3.038 3.038 0 0 1-1.234-1.023c-.323-.458-.485-1.037-.485-1.734V23.124zM188.742 38.25c-1.083 0-2.034-.258-2.851-.773-.813-.516-1.448-1.237-1.907-2.164-.453-.928-.679-2.01-.679-3.25 0-1.25.226-2.342.679-3.274.459-.932 1.094-1.656 1.907-2.172.817-.515 1.768-.773 2.851-.773 1.084 0 2.031.258 2.844.773.818.516 1.453 1.24 1.906 2.172.459.932.688 2.023.688 3.273 0 1.24-.229 2.323-.688 3.25-.453.928-1.088 1.649-1.906 2.165-.813.515-1.76.773-2.844.773zm0-1.656c.823 0 1.5-.211 2.031-.633.532-.422.925-.977 1.18-1.664a6.376 6.376 0 0 0 .383-2.234 6.44 6.44 0 0 0-.383-2.243c-.255-.692-.648-1.252-1.18-1.68-.531-.427-1.208-.64-2.031-.64-.823 0-1.5.213-2.031.64-.531.428-.925.988-1.18 1.68a6.44 6.44 0 0 0-.383 2.242c0 .803.128 1.547.383 2.235.255.687.649 1.242 1.18 1.664.531.422 1.208.633 2.031.633zM198.838 30.781V38h-1.844V26h1.781v1.875h.157a3.423 3.423 0 0 1 1.281-1.469c.573-.375 1.312-.562 2.219-.562.812 0 1.523.166 2.132.5.61.328 1.084.828 1.422 1.5.339.666.508 1.51.508 2.531V38h-1.844v-7.5c0-.943-.244-1.677-.734-2.203-.49-.531-1.161-.797-2.016-.797a3.22 3.22 0 0 0-1.578.383c-.458.255-.82.627-1.086 1.117-.265.49-.398 1.083-.398 1.781z"/>
    </g>
    <defs>
        <filter id="ms6nq9c77a" x="11.938" y="15.5" width="198.557" height="41.922" filterUnits="userSpaceOnUse" color-interpolation-filters="sRGB">
            <feFlood flood-opacity="0" result="BackgroundImageFix"/>
            <feColorMatrix in="SourceAlpha" values="0 0 0 0 0 0 0 0 0 0 0 0 0 0 0 0 0 0 127 0" result="hardAlpha"/>
            <feOffset dy="4"/>
            <feGaussianBlur stdDeviation="2"/>
            <feComposite in2="hardAlpha" operator="out"/>
            <feColorMatrix values="0 0 0 0 0 0 0 0 0 0 0 0 0 0 0 0 0 0 0.25 0"/>
            <feBlend in2="BackgroundImageFix" result="effect1_dropShadow_11_18"/>
            <feBlend in="SourceGraphic" in2="effect1_dropShadow_11_18" result="shape"/>
        </filter>
    </defs>
</svg>
